<svg width="32" height="32" viewBox="0 0 32 32" fill="none" xmlns="http://www.w3.org/2000/svg">
<path d="M9.0071 12.2448C8.42376 12.5925 7.81332 12.8007 7.16384 12.8704C6.72626 12.9195 6.31006 12.8688 5.96197 12.7339C5.3913 12.5076 4.96788 12.1001 4.70726 11.5271C4.64712 11.3949 4.64297 11.2417 4.70207 11.1007C4.94404 10.5144 5.3524 10.103 5.92169 9.85699C6.26326 9.70942 6.68344 9.65194 7.11987 9.68438C8.02204 9.75669 8.84824 10.0984 9.64342 10.7014L10.0745 10.6934C10.1645 10.3223 10.3599 9.98172 10.634 9.70006L10.4095 9.32341C9.4742 8.9658 8.74942 8.43915 8.22055 7.70856C7.9593 7.35382 7.79442 6.97276 7.74047 6.60028C7.64962 5.98834 7.79248 5.42384 8.15987 4.91227C8.24458 4.7933 8.37778 4.7139 8.52273 4.69598C9.14748 4.61617 9.71197 4.75903 10.207 5.13004C10.509 5.35467 10.7658 5.68097 10.9535 6.07952C11.34 6.89498 11.4585 7.78304 11.3281 8.77584L11.5526 9.15248C11.928 9.04077 12.3233 9.03549 12.6926 9.13285L12.9046 8.75747C12.7497 7.7666 12.8422 6.87732 13.2059 6.05669C13.3822 5.65278 13.6308 5.31785 13.9277 5.08486C14.4102 4.70385 14.971 4.53765 15.6018 4.60367C15.7466 4.61692 15.8794 4.69342 15.9744 4.81108C16.359 5.31016 16.5161 5.87644 16.4391 6.48881C16.3922 6.85917 16.2388 7.24939 15.9874 7.6109C15.6172 8.14906 15.1436 8.58696 14.5603 8.93467C14.3352 9.06883 14.0919 9.18275 13.8385 9.29023L13.6265 9.66561C13.7609 9.79714 13.8889 9.93874 13.9902 10.1087C14.0915 10.2786 14.1551 10.4586 14.2069 10.6394L14.6453 10.6333C15.4211 10.0028 16.2383 9.64016 17.1401 9.54464C17.5776 9.49547 17.9938 9.54619 18.3419 9.68109C18.9126 9.90742 19.336 10.3149 19.5966 10.8879C19.6568 11.0201 19.6563 11.176 19.6018 11.3144C19.4023 11.7943 19.0913 12.1602 18.6733 12.4094C18.5815 12.4641 18.4869 12.5143 18.3868 12.5553C18.0452 12.7029 17.6296 12.7576 17.1886 12.7279C16.2864 12.6556 15.4602 12.3139 14.6697 11.7082L14.2386 11.7161C14.1504 12.0799 13.955 12.4205 13.6855 12.6994C13.7649 12.8326 13.8489 12.9631 13.9283 13.0963C14.8471 13.4575 15.5618 13.9777 16.0898 14.6964C16.351 15.0511 16.5159 15.4322 16.5699 15.8047C16.6266 16.1817 16.5833 16.5374 16.4622 16.8773C16.8577 17.4259 17.256 17.948 17.6453 18.4443C17.6904 18.0501 17.8062 17.6699 18.0044 17.3027C18.4304 16.5134 19.1528 15.9396 20.0863 15.6571C20.8132 15.4354 21.5727 15.3936 22.3289 15.5343C22.5186 15.5706 22.6796 15.705 22.7414 15.8922C22.8032 16.0795 22.7559 16.282 22.6225 16.4238C22.249 16.8207 21.7747 17.5392 21.669 18.2496C21.5043 19.3625 20.8908 20.0145 20.2064 20.4225C19.9997 20.5457 19.7931 20.6377 19.5838 20.7251C21.2714 22.533 22.8233 23.737 24.125 24.2185C24.4035 24.3202 24.5438 24.6287 24.4421 24.9072C24.3959 25.0282 24.3141 25.1205 24.213 25.1808C24.0798 25.2602 23.911 25.2799 23.7534 25.2244C22.8163 24.8741 21.8543 24.2523 20.9092 23.471L20.8311 23.5175C20.4478 23.8456 20.0148 24.1846 19.5372 24.4694C18.6369 25.006 17.5647 25.3587 16.3256 25.1075C15.4421 24.9307 14.2556 25.1648 13.5093 25.4167C13.3037 25.4894 13.0783 25.4246 12.9394 25.2646C12.8004 25.1046 12.7663 24.8698 12.8622 24.6756C13.2727 23.8396 13.8637 23.0764 14.6203 22.4138C15.5682 21.5811 16.6482 21.0743 17.7417 20.9454C17.9343 20.924 18.1205 20.9126 18.3076 20.9131C18.2893 20.8929 18.2683 20.8681 18.25 20.8478C17.3368 19.8172 16.4917 18.7335 15.7472 17.7144C15.1363 17.7859 14.5837 17.6422 14.106 17.2795C13.8041 17.0549 13.5473 16.7286 13.3596 16.33C12.9731 15.5146 12.8546 14.6265 12.9804 13.6364L12.7558 13.2598C12.3804 13.3715 11.9852 13.3768 11.6159 13.2794L11.4039 13.6548C11.5587 14.6457 11.4663 15.535 11.1026 16.3556C10.9263 16.7595 10.6777 17.0944 10.3808 17.3274C10.2972 17.396 10.208 17.4553 10.1162 17.5101C9.6982 17.7592 9.22378 17.8615 8.71131 17.8059C8.56371 17.788 8.4337 17.7161 8.33867 17.5985C7.95403 17.0994 7.79702 16.5331 7.87399 15.9207C7.92091 15.5504 8.07427 15.1602 8.32567 14.7986C8.84138 14.0555 9.54909 13.5091 10.47 13.122L10.6839 12.7393C10.5495 12.6078 10.4215 12.4662 10.3202 12.2963C10.2189 12.1263 10.1552 11.9464 10.1035 11.7656L9.67242 11.7735C9.44814 11.9508 9.23217 12.1106 9.0071 12.2448ZM7.03333 10.7507C6.76561 10.7297 6.52801 10.7593 6.33978 10.8404C6.10473 10.9369 5.93098 11.084 5.80015 11.2928C5.93528 11.4986 6.11829 11.6385 6.35553 11.7336C6.54331 11.8085 6.78259 11.8339 7.05137 11.8044C7.59627 11.7473 8.0911 11.5644 8.57436 11.2577C8.07727 10.9564 7.5761 10.7944 7.03333 10.7507ZM15.0987 7.00765C15.2525 6.78525 15.3439 6.56267 15.3674 6.36191C15.3993 6.11256 15.356 5.88317 15.2438 5.66367C14.998 5.67946 14.7859 5.7623 14.5892 5.92313C14.4329 6.0474 14.2893 6.24507 14.1804 6.49053C13.9607 6.98877 13.8647 7.50663 13.8906 8.08262C14.3976 7.8053 14.7911 7.45245 15.0987 7.00765ZM17.2632 11.6625C17.5309 11.6834 17.7686 11.6539 17.9568 11.5728C18.1891 11.4717 18.3674 11.3218 18.4964 11.1204C18.3613 10.9146 18.1783 10.7747 17.9438 10.6841C17.756 10.6093 17.5167 10.5838 17.2479 10.6133C16.703 10.6704 16.2128 10.8506 15.7249 11.1601C16.2193 11.4568 16.7205 11.6187 17.2632 11.6625ZM20.6121 18.0953C20.6953 17.5352 20.9307 16.9902 21.2108 16.5306C20.9366 16.5509 20.6668 16.5997 20.3924 16.6823C19.9353 16.8241 19.3034 17.1322 18.9365 17.8116C18.7217 18.2136 18.5043 18.8411 18.9233 19.8364C19.9991 19.4691 20.4802 18.9707 20.6121 18.0953ZM9.19787 15.4055C9.04408 15.6279 8.95265 15.8505 8.92914 16.0513C8.89998 16.3052 8.936 16.5327 9.05276 16.7495C9.29858 16.7337 9.51066 16.6509 9.70737 16.49C9.86363 16.3658 10.0073 16.1681 10.1162 15.9226C10.3359 15.4244 10.4318 14.9065 10.406 14.3305C9.89898 14.6079 9.50546 14.9607 9.19787 15.4055ZM9.56351 5.99296C9.36036 5.84014 9.146 5.76249 8.89841 5.75443C8.79232 5.9733 8.75865 6.1988 8.79185 6.45292C8.82337 6.65202 8.92361 6.8724 9.07887 7.09111C9.40407 7.53224 9.80108 7.87453 10.312 8.13646C10.322 7.55782 10.2143 7.04304 9.97914 6.55449C9.86981 6.3084 9.72364 6.11539 9.56351 5.99296ZM17.8633 22.0059C16.9863 22.1116 16.1038 22.5318 15.3177 23.2182C15.0116 23.4879 14.7375 23.7695 14.4963 24.0751C15.1716 23.9652 15.9007 23.9352 16.5359 24.0608C17.6678 24.2888 18.73 23.8985 20.0749 22.7606C19.5027 22.1243 18.8045 21.8931 17.8633 22.0059ZM14.7331 16.4202C14.9362 16.573 15.1506 16.6507 15.3981 16.6587C15.5042 16.4399 15.5425 16.2116 15.5047 15.9602C15.4732 15.7611 15.373 15.5408 15.2177 15.322C14.8925 14.8809 14.4955 14.5386 13.9845 14.2767C13.9746 14.8553 14.0822 15.3701 14.3174 15.8587C14.4268 16.1048 14.5729 16.2978 14.7331 16.4202ZM12.6959 12.1252C13.2011 11.8241 13.3681 11.1643 13.0669 10.659C12.7658 10.1537 12.106 9.98677 11.6007 10.2879C11.0954 10.5891 10.9285 11.2489 11.2296 11.7542C11.5308 12.2594 12.1906 12.4264 12.6959 12.1252Z" fill="#359740"/>
</svg>
