<svg width="28" height="28" viewBox="0 0 28 28" fill="none" xmlns="http://www.w3.org/2000/svg">
<path d="M7.0116 6.54006C6.82785 7.12365 7.2841 8.41484 7.48514 8.6399L7.30999 8.93713L10.8536 21.3103C11.0527 22.0595 11.63 22.1065 11.8938 22.0364L21.1521 19.5751C22.0715 19.4643 22.2296 18.9544 22.1938 18.7133L18.7839 5.88679L18.4051 5.73682C18.5608 5.47262 18.6515 4.11402 18.169 3.57386C17.5658 2.89866 7.24127 5.81057 7.0116 6.54006Z" stroke="#359740" stroke-width="1.5"/>
<path d="M4.0383 13.1508C3.95222 13.7723 4.69241 14.8968 4.9525 15.0576L4.82067 15.3978L11.0199 26.4149C11.3787 27.0864 12.0105 26.9647 12.2815 26.8199L21.7951 21.7374C22.7656 21.3627 22.8382 20.8204 22.7532 20.5961L16.611 9.09894L16.1737 9.06284C16.2908 8.76047 16.1276 7.41156 15.5034 7.02572C14.7231 6.54342 4.14591 12.374 4.0383 13.1508Z" fill="white" stroke="#359740" stroke-width="1.5"/>
</svg>
