<svg width="124" height="24" viewBox="0 0 124 24" fill="none" xmlns="http://www.w3.org/2000/svg">
<path d="M97 10.1C97.1 9.6 96.7 9 96.2 9L90.5 8.2L87.9 3C87.8 2.8 87.7 2.7 87.5 2.6C87 2.3 86.4 2.5 86.1 3L83.6 8.2L77.9 9C77.6 9 77.4 9.1 77.3 9.3C76.9 9.7 76.9 10.3 77.3 10.7L81.4 14.7L80.4 20.4C80.4 20.6 80.4 20.8 80.5 21C80.8 21.5 81.4 21.7 81.9 21.4L87 18.7L92.1 21.4C92.2 21.5 92.4 21.5 92.6 21.5C92.7 21.5 92.7 21.5 92.8 21.5C93.3 21.4 93.7 20.9 93.6 20.3L92.6 14.6L96.7 10.6C96.9 10.5 97 10.3 97 10.1Z" fill="#FFCF55"/>
<path d="M72 10.1C72.1 9.6 71.7 9 71.2 9L65.5 8.2L62.9 3C62.8 2.8 62.7 2.7 62.5 2.6C62 2.3 61.4 2.5 61.1 3L58.6 8.2L52.9 9C52.6 9 52.4 9.1 52.3 9.3C51.9 9.7 51.9 10.3 52.3 10.7L56.4 14.7L55.4 20.4C55.4 20.6 55.4 20.8 55.5 21C55.8 21.5 56.4 21.7 56.9 21.4L62 18.7L67.1 21.4C67.2 21.5 67.4 21.5 67.6 21.5C67.7 21.5 67.7 21.5 67.8 21.5C68.3 21.4 68.7 20.9 68.6 20.3L67.6 14.6L71.7 10.6C71.9 10.5 72 10.3 72 10.1Z" fill="#FFCF55"/>
<path d="M47 10.1C47.1 9.6 46.7 9 46.2 9L40.5 8.2L37.9 3C37.8 2.8 37.7 2.7 37.5 2.6C37 2.3 36.4 2.5 36.1 3L33.6 8.2L27.9 9C27.6 9 27.4 9.1 27.3 9.3C26.9 9.7 26.9 10.3 27.3 10.7L31.4 14.7L30.4 20.4C30.4 20.6 30.4 20.8 30.5 21C30.8 21.5 31.4 21.7 31.9 21.4L37 18.7L42.1 21.4C42.2 21.5 42.4 21.5 42.6 21.5C42.7 21.5 42.7 21.5 42.8 21.5C43.3 21.4 43.7 20.9 43.6 20.3L42.6 14.6L46.7 10.6C46.9 10.5 47 10.3 47 10.1Z" fill="#FFCF55"/>
<path d="M22 10.1C22.1 9.6 21.7 9 21.2 9L15.5 8.2L12.9 3C12.8 2.8 12.7 2.7 12.5 2.6C12 2.3 11.4 2.5 11.1 3L8.6 8.2L2.9 9C2.6 9 2.4 9.1 2.3 9.3C1.9 9.7 1.9 10.3 2.3 10.7L6.4 14.7L5.4 20.4C5.4 20.6 5.4 20.8 5.5 21C5.8 21.5 6.4 21.7 6.9 21.4L12 18.7L17.1 21.4C17.2 21.5 17.4 21.5 17.6 21.5C17.7 21.5 17.7 21.5 17.8 21.5C18.3 21.4 18.7 20.9 18.6 20.3L17.6 14.6L21.7 10.6C21.9 10.5 22 10.3 22 10.1Z" fill="#FFCF55"/>
<path d="M122 10.1C122.1 9.6 121.7 9 121.2 9L115.5 8.2L112.9 3C112.8 2.8 112.7 2.7 112.5 2.6C112 2.3 111.4 2.5 111.1 3L108.6 8.2L102.9 9C102.6 9 102.4 9.1 102.3 9.3C101.9 9.7 101.9 10.3 102.3 10.7L106.4 14.7L105.4 20.4C105.4 20.6 105.4 20.8 105.5 21C105.8 21.5 106.4 21.7 106.9 21.4L112 18.7L117.1 21.4C117.2 21.5 117.4 21.5 117.6 21.5C117.7 21.5 117.7 21.5 117.8 21.5C118.3 21.4 118.7 20.9 118.6 20.3L117.6 14.6L121.7 10.6C121.9 10.5 122 10.3 122 10.1ZM115.8 13.6C115.6 13.8 115.5 14.2 115.5 14.5L116.2 18.7L112.4 16.7C112.3 16.6 112.1 16.6 111.9 16.6V5.7L113.8 9.5C113.9 9.8 114.2 10 114.6 10L118.8 10.6L115.8 13.6Z" fill="#FFCF55"/>
</svg>
