<svg width="38" height="24" viewBox="0 0 38 24" fill="none" xmlns="http://www.w3.org/2000/svg">
<path d="M11 10.1C11.1 9.6 10.7 9 10.2 9L4.5 8.2L1.9 3C1.8 2.8 1.7 2.7 1.5 2.6C1 2.3 0.4 2.5 0.1 3L-2.4 8.2L-8.1 9C-8.4 9 -8.6 9.1 -8.7 9.3C-9.1 9.7 -9.1 10.3 -8.7 10.7L-4.6 14.7L-5.6 20.4C-5.6 20.6 -5.6 20.8 -5.5 21C-5.2 21.5 -4.6 21.7 -4.1 21.4L1 18.7L6.1 21.4C6.2 21.5 6.4 21.5 6.6 21.5C6.7 21.5 6.7 21.5 6.8 21.5C7.3 21.4 7.7 20.9 7.6 20.3L6.6 14.6L10.7 10.6C10.9 10.5 11 10.3 11 10.1Z" fill="#FFCF55"/>
<path d="M36 10.1C36.1 9.6 35.7 9 35.2 9L29.5 8.2L26.9 3C26.8 2.8 26.7 2.7 26.5 2.6C26 2.3 25.4 2.5 25.1 3L22.6 8.2L16.9 9C16.6 9 16.4 9.1 16.3 9.3C15.9 9.7 15.9 10.3 16.3 10.7L20.4 14.7L19.4 20.4C19.4 20.6 19.4 20.8 19.5 21C19.8 21.5 20.4 21.7 20.9 21.4L26 18.7L31.1 21.4C31.2 21.5 31.4 21.5 31.6 21.5C31.7 21.5 31.7 21.5 31.8 21.5C32.3 21.4 32.7 20.9 32.6 20.3L31.6 14.6L35.7 10.6C35.9 10.5 36 10.3 36 10.1ZM29.8 13.6C29.6 13.8 29.5 14.2 29.5 14.5L30.2 18.7L26.4 16.7C26.3 16.6 26.1 16.6 25.9 16.6V5.7L27.8 9.5C27.9 9.8 28.2 10 28.6 10L32.8 10.6L29.8 13.6Z" fill="#FFCF55"/>
</svg>
