<svg width="53" height="37" viewBox="0 0 53 37" fill="none" xmlns="http://www.w3.org/2000/svg">
<g clip-path="url(#clip0_1_320)">
<path d="M6.1643 5.83544C8.17669 2.96031 10.7187 0.596326 13.7055 0.10649C16.5652 -0.383345 19.785 0.979675 22.3058 2.06583C27.5168 4.38723 30.4401 5.79284 34.7191 9.34947C38.0872 12.1607 41.7518 14.8654 44.3362 18.486C46.5816 21.5741 47.4077 25.4927 50.2886 28.091C53.8897 31.3282 54.0168 32.031 49.992 34.6931C37.3669 43.1268 28.576 45.6399 13.3877 42.999C6.4185 41.7638 1.58876 40.4434 0.402509 33.1384C-0.529545 27.3669 0.105946 20.1684 1.86414 14.6312C2.75383 12.0116 4.17309 8.66796 6.1643 5.83544Z" fill="#FFC40C"/>
<path d="M14.7011 15.7386C12.9005 18.9758 11.5872 22.6815 11.5872 25.2159C11.5448 30.8383 20.6323 32.2865 24.7842 32.1161C30.4825 31.8819 36.5196 31.3281 42.1755 30.5827C40.1419 32.031 37.9177 33.2023 35.5664 34.1181C30.5036 36.12 25.2079 37.6534 19.9121 38.3775C14.1715 39.1655 6.96926 40.1239 3.98245 33.5431C1.86415 28.8151 2.33018 24.0658 2.6691 19.0823C3.02922 14.1626 7.01163 8.9661 10.8669 6.11227C11.8202 5.38817 13.0276 5.00482 14.3833 4.79185C21.3737 3.76958 25.6103 7.70956 30.1859 12.3524C31.7323 13.9496 33.0032 15.8664 34.7191 17.272C36.562 18.8054 39.4429 20.5518 41.7095 22.4898C38.0024 21.4888 34.1259 18.6137 30.9697 16.5479C28.3641 14.8441 25.7163 13.0339 22.7506 12.0329C18.5988 10.606 16.7982 12.0755 14.7011 15.7386Z" fill="#FFFA50"/>
<path d="M41.4129 22.2982C43.7854 23.6399 47.0264 26.0678 46.0096 28.4956C45.0564 30.7318 40.5232 31.9032 38.4684 32.2865C35.291 32.8829 32.0923 33.0745 28.9149 33.4579C26.3306 33.7773 24.2334 34.5227 21.6067 34.0329C16.6499 33.1171 12.5192 32.2014 11.8625 26.7493C11.0152 19.8277 16.9465 7.02807 25.8433 10.606C29.0208 11.8838 30.1223 14.4821 32.3465 16.6544C34.5072 18.7841 37.261 20.2536 39.9724 21.5102C40.3537 21.7231 40.8621 21.9787 41.4129 22.2982Z" fill="#FFE62E"/>
<path d="M13.7055 0.10649C16.5652 -0.383345 19.785 0.979675 22.3058 2.06583C27.5168 4.38723 30.4401 5.79284 34.7191 9.34947C38.0872 12.1607 41.7518 14.8654 44.3362 18.486C45.4165 19.9768 46.1791 21.6805 47.0052 23.3417C46.3909 22.4898 45.7766 21.6593 45.0564 20.9777C42.4721 18.4008 39.8454 15.6534 36.7738 13.6728C36.7314 13.6515 36.6891 13.6302 36.6679 13.6089C31.478 8.94483 24.8689 5.00484 19.785 5.51598C11.2271 6.38916 4.82977 15.0145 4.21546 23.3843C3.30459 35.3959 12.5828 40.0174 23.4285 39.3146C32.8338 38.7183 45.0352 37.2701 52.5552 30.9448C52.6611 30.9022 52.7247 30.8809 52.8094 30.8383C53.4237 32.0949 52.5552 32.9894 49.992 34.6931C37.3669 43.1268 28.576 45.6399 13.3877 42.999C6.4185 41.7638 1.58876 40.4434 0.402509 33.1384C-0.529545 27.3669 0.105946 20.1684 1.86414 14.6312C2.71146 12.0116 4.15191 8.66796 6.12193 5.83544C8.19787 2.96031 10.7187 0.596326 13.7055 0.10649Z" fill="#EF9818"/>
<path d="M8.21904 16.7822C9.38411 13.9923 11.2694 11.5857 13.7266 9.45599C16.1839 7.28367 18.4928 7.53924 15.9509 10.6273C11.8413 15.6748 9.76541 18.486 9.97724 25.1307C9.99842 26.8558 11.4812 31.4347 10.3373 32.3292C6.90569 30.9236 6.6515 25.5993 6.88451 22.4899C7.03279 20.424 7.47764 18.5286 8.21904 16.7822Z" fill="white"/>
<path d="M42.6203 26.4085C42.578 26.0251 42.4932 25.6418 42.3661 25.3649C41.9425 24.4917 40.9045 23.7463 40.1207 23.2139C39.4005 22.7241 38.4685 22.4046 38.066 21.5953C38.9557 21.1268 40.9892 22.5111 41.7095 22.9796C42.7263 23.6399 43.7642 24.3853 44.5268 25.3649C45.0988 26.089 45.4801 26.9409 45.2894 27.878C45.0988 28.7512 44.548 29.5392 43.5948 29.0067C42.7898 28.5808 42.7686 27.4095 42.6203 26.4085Z" fill="white"/>
</g>
<defs>
<clipPath id="clip0_1_320">
<rect width="53" height="44" fill="white"/>
</clipPath>
</defs>
</svg>
