<svg width="28" height="28" viewBox="0 0 28 28" fill="none" xmlns="http://www.w3.org/2000/svg">
<g clip-path="url(#clip0_1_202)">
<path d="M22.3868 9.17501C21.1399 7.27195 19.1876 6.07219 17.0929 5.73433C17.1143 5.58953 17.0929 5.43094 17.0145 5.29304C16.8649 5.03102 16.5585 4.88622 16.245 4.94828L11.9201 5.81017L11.3216 4.03122C11.2361 3.7761 11.001 3.58993 10.7231 3.56235C10.4453 3.53477 10.1745 3.66578 10.032 3.90021L8.74238 6.03082C7.866 5.38267 6.79013 4.94138 5.7 4.94138C5.30813 4.94138 4.9875 5.25166 4.9875 5.6309C4.9875 6.01013 5.30813 6.32042 5.7 6.32042C6.5265 6.32042 7.353 6.70654 8.0085 7.22368L3.88313 9.88521C3.6195 10.0507 3.5055 10.3679 3.59813 10.6575C3.68363 10.9471 3.9615 11.147 4.275 11.147H6.17738L5.00888 15.098C4.92338 15.4013 5.05163 15.7185 5.3295 15.8771C5.4435 15.9461 5.57175 15.9667 5.7 15.9667C5.71425 18.2215 6.74738 20.4072 8.64975 21.8138C11.4641 23.8893 15.561 24.9442 20.8335 24.9442C21.033 24.9442 21.2325 24.9442 21.432 24.9374C23.085 24.9098 24.4886 23.6893 24.6953 22.0965C25.3721 16.8907 24.5955 12.5467 22.3868 9.17501ZM23.2845 21.9242C23.1634 22.8412 22.3654 23.5445 21.4178 23.5583C16.1809 23.6342 12.1766 22.6826 9.519 20.7175C7.65225 19.3385 6.81863 17.0286 7.23188 14.8084L8.25788 13.8499C7.31738 16.1253 7.99425 18.7248 9.95363 20.1728C12.3833 21.9655 16.0455 22.8757 20.8335 22.8757C21.0259 22.8757 21.2183 22.8757 21.4178 22.8688C21.8096 22.8619 22.1231 22.5447 22.116 22.1655C22.1089 21.7863 21.7883 21.4898 21.4035 21.4898C21.3964 21.4898 21.3964 21.4898 21.3893 21.4898C16.6511 21.5725 13.0886 20.7451 10.8229 19.0765C9.29813 17.9526 8.82788 15.8495 9.71138 14.0844L11.5568 16.4011C11.685 16.5666 11.8988 16.6632 12.1125 16.6632C12.1909 16.6632 12.2693 16.6494 12.3405 16.6287C12.6326 16.5321 12.825 16.2701 12.825 15.9736V11.0643L17.898 10.4506C18.2186 10.4092 18.4751 10.1679 18.5179 9.85763C18.5606 9.54735 18.3825 9.25086 18.0833 9.12675L15.0765 7.93388L15.9885 7.01683C18.0191 7.0513 19.9928 8.08558 21.1826 9.9059C23.2061 13.0087 23.9186 17.0493 23.2845 21.9242ZM8.94188 8.27175C8.95613 8.26485 8.95613 8.25796 8.96325 8.25106C9.15563 8.54755 9.2625 8.83715 9.2625 9.07848C9.2625 9.45771 9.58313 9.768 9.975 9.768C10.3669 9.768 10.6875 9.45771 10.6875 9.07848C10.6875 8.42344 10.3455 7.68566 9.78975 7.01683L10.4524 5.9205L10.7588 6.83066C10.8728 7.16852 11.229 7.36158 11.5781 7.29263L14.2643 6.75481L13.3095 7.71324C13.1456 7.87872 13.0744 8.11316 13.1243 8.3338C13.1741 8.55445 13.3309 8.74062 13.5518 8.83025L15.0195 9.40945L12.0199 9.77489C11.6708 9.81626 11.4 10.1128 11.4 10.4575V13.9465L9.61875 11.7055C9.49763 11.5469 9.30525 11.4504 9.10575 11.4366C9.0915 11.4366 9.07013 11.4366 9.05588 11.4366C8.87063 11.4366 8.6925 11.5056 8.55713 11.6297L7.11788 12.9811L7.809 10.6368C7.87313 10.4368 7.83038 10.2162 7.695 10.0438C7.55963 9.87142 7.34588 9.768 7.125 9.768H6.62625L8.94188 8.27175Z" fill="#359740"/>
<path d="M15.1691 13.7053C15.3116 13.8363 15.4898 13.9053 15.675 13.9053C15.8603 13.9053 16.0384 13.8363 16.1809 13.7053C16.4588 13.4364 16.4588 13.002 16.1809 12.7331L15.4684 12.0436C15.1905 11.7747 14.7416 11.7747 14.4638 12.0436C14.1859 12.3125 14.1859 12.7469 14.4638 13.0158L15.1691 13.7053Z" fill="#359740"/>
<path d="M19.4441 13.0158C19.5866 13.1468 19.7647 13.2157 19.95 13.2157C20.1352 13.2157 20.3134 13.1468 20.4559 13.0158C20.7337 12.7468 20.7337 12.3125 20.4559 12.0435L19.7434 11.354C19.4655 11.0851 19.0166 11.0851 18.7387 11.354C18.4609 11.6229 18.4609 12.0573 18.7387 12.3262L19.4441 13.0158Z" fill="#359740"/>
<path d="M16.1809 17.5528L15.4684 16.8633C15.1905 16.5944 14.7416 16.5944 14.4638 16.8633C14.1859 17.1322 14.1859 17.5666 14.4638 17.8355L15.1763 18.525C15.3116 18.6629 15.4898 18.7319 15.675 18.7319C15.8603 18.7319 16.0384 18.6629 16.1809 18.5319C16.4588 18.263 16.4588 17.8217 16.1809 17.5528Z" fill="#359740"/>
<path d="M18.0191 16.4634C18.1616 16.5944 18.3397 16.6634 18.525 16.6634C18.7102 16.6634 18.8884 16.5944 19.0309 16.4634C19.3087 16.1945 19.3087 15.7601 19.0309 15.4912L18.3184 14.8017C18.0405 14.5327 17.5916 14.5327 17.3137 14.8017C17.0359 15.0706 17.0359 15.505 17.3137 15.7739L18.0191 16.4634Z" fill="#359740"/>
<path d="M20.8691 16.4635L21.5816 17.153C21.7241 17.284 21.9023 17.3529 22.0875 17.3529C22.2728 17.3529 22.4509 17.284 22.5934 17.153C22.8713 16.8841 22.8713 16.4497 22.5934 16.1807L21.8809 15.4912C21.603 15.2223 21.1541 15.2223 20.8763 15.4912C20.5913 15.7532 20.5913 16.1945 20.8691 16.4635Z" fill="#359740"/>
<path d="M19.7434 18.2423C19.4655 17.9734 19.0166 17.9734 18.7387 18.2423C18.4609 18.5112 18.4609 18.9456 18.7387 19.2145L19.4512 19.9041C19.5866 20.042 19.7647 20.1109 19.95 20.1109C20.1352 20.1109 20.3134 20.042 20.4559 19.911C20.7337 19.642 20.7337 19.2077 20.4559 18.9387L19.7434 18.2423Z" fill="#359740"/>
</g>
<defs>
<clipPath id="clip0_1_202">
<rect width="21.375" height="21.375" fill="white" transform="translate(3.5625 3.5625)"/>
</clipPath>
</defs>
</svg>
