<svg width="31" height="24" viewBox="0 0 31 24" fill="none" xmlns="http://www.w3.org/2000/svg">
<g clip-path="url(#clip0_1_336)">
<path d="M7.41999 3.82002C10.34 1.42002 14.27 0.710018 18.01 0.190018C19.29 0.0100179 20.61 -0.149982 21.86 0.190018C23.85 0.720018 25.54 2.48002 27.6 2.32002C28.17 2.28002 28.77 2.08002 29.3 2.29002C29.99 2.56002 30.28 3.43002 30.14 4.16002C30 4.89002 29.54 5.51002 29.09 6.10002C23.74 13.08 17.82 20.46 9.36999 22.89C7.17999 23.52 4.58999 23.77 2.46999 22.76C-0.250015 21.47 -0.270015 19.38 0.309985 16.73C1.34999 11.87 3.49999 7.05002 7.41999 3.82002Z" fill="#D5D458"/>
<path opacity="0.62" d="M2.81998 22.91C5.58998 22.53 8.11998 21.22 10.49 19.81C12.44 18.65 14.53 17.45 16.31 16.05C17.51 15.11 18.21 13.69 18.88 12.32C19.34 11.38 19.8 10.44 20.26 9.49002C20.52 8.96002 20.78 8.42002 20.85 7.83002C19.65 8.27002 18.45 8.71002 17.26 9.15002C18.22 8.80002 19.36 7.35002 20.14 6.67002C20.54 6.33002 21.98 5.48002 21.48 4.74002C21.28 4.44002 20.89 4.34002 20.53 4.29002C19.4 4.12002 18.22 4.24002 17.14 4.63002C17.89 3.76002 19.07 3.40002 20.2 3.20002C20.5 3.15002 20.83 3.09002 21.04 2.86002C20.71 2.56002 20.22 2.51002 19.77 2.49002C17.34 2.38002 14.89 2.64002 12.54 3.25002C13.34 2.85002 14.14 2.46002 14.99 2.19002C15.54 2.02002 16.11 1.90002 16.67 1.78002C17.88 1.53002 19.09 1.28002 20.31 1.03002C19.36 0.470018 17.76 0.490018 16.71 0.680018C15.9 0.830018 15 0.660018 14.21 0.830018C15.46 0.560018 16.74 0.360018 18 0.190018C19.28 0.0100179 20.6 -0.149982 21.85 0.190018C23.84 0.720018 25.53 2.48002 27.59 2.32002C28.16 2.28002 28.76 2.08002 29.29 2.29002C29.98 2.56002 30.27 3.43002 30.13 4.16002C30 4.89002 29.54 5.51002 29.09 6.10002C23.74 13.08 17.82 20.46 9.36998 22.89C7.29998 23.48 4.86998 23.73 2.81998 22.91Z" fill="#BFB939"/>
<path opacity="0.62" d="M26.05 6.36008C25.13 4.82008 25.65 3.53008 25.99 2.08008C26.51 2.26008 27.04 2.36008 27.6 2.32008C28.17 2.28008 28.77 2.08008 29.3 2.29008C29.99 2.56008 30.28 3.43008 30.14 4.16008C30 4.89008 29.54 5.51008 29.09 6.10008C28.59 6.76008 28.07 7.42008 27.56 8.08008C27.01 7.55008 26.45 7.04008 26.05 6.36008Z" fill="#FFEC9C"/>
<path opacity="0.68" d="M25.98 6.61007C26 6.50007 26.01 6.39007 26.01 6.27007C27.06 6.72007 28.19 5.89007 28.44 4.83007C28.61 4.12007 28.85 3.39007 28.47 2.76007C28.49 2.62007 28.17 2.39007 28.14 2.25007C28.54 2.19007 28.94 2.15007 29.31 2.29007C30 2.56007 30.29 3.43007 30.15 4.16007C30 4.89007 29.54 5.51007 29.09 6.10007C28.52 6.84007 27.95 7.59007 27.36 8.33007C26.55 7.91007 25.84 7.32007 25.98 6.61007Z" fill="#E8B769"/>
<path opacity="0.44" d="M8.75998 5.76005C10.47 4.58005 12.37 3.65005 14.39 3.18005C16.95 2.58005 19.72 2.74005 22.09 3.88005C23.39 4.50005 24.63 5.56005 24.83 6.98005C25.18 9.54005 23.61 11.2401 22.17 13.0501C20.43 15.2501 18.17 17.0101 15.71 18.3601C12.58 20.0701 9.12998 21.1301 5.64998 21.9301C4.33998 22.2301 2.71998 22.4001 1.87998 21.3401C1.29998 20.6101 1.34998 19.5701 1.48998 18.6501C2.22998 13.6801 4.57998 8.65005 8.75998 5.76005Z" fill="#E5DF6E"/>
<path opacity="0.65" d="M27.37 8.07007C27.4 8.03007 27.42 8.00007 27.45 7.97007C28.06 7.11007 28.96 5.53007 29.17 4.49007C29.4 3.36007 29.23 2.53007 28.34 2.23007C28.67 2.19007 29 2.17007 29.3 2.29007C29.99 2.56007 30.28 3.43007 30.14 4.16007C30 4.89007 29.54 5.51007 29.09 6.10007C28.55 6.80007 28 7.51007 27.45 8.21007C27.42 8.16007 27.4 8.11007 27.37 8.07007Z" fill="#A57329"/>
<path d="M5.86999 19.8701C5.70999 19.9401 5.54999 20.0101 5.38999 20.0901C4.61999 20.4501 3.43999 21.0501 2.57999 20.7301C1.56999 20.3501 1.95999 18.0901 2.13999 17.1801C2.66999 14.4101 4.44999 12.3001 6.23999 10.5301C7.16999 9.60007 8.32999 8.90007 9.60999 8.82007C10.14 8.79007 10.68 8.86007 11.21 8.80007C12.32 8.68007 13.3 7.90007 14.42 7.87007C15.1 7.85007 16.06 7.95007 16.72 8.14007C17.27 8.30007 17.81 8.73007 17.98 9.34007C18.16 9.97007 17.92 10.6201 17.66 11.1701C15.92 14.8501 12.83 17.5901 9.23999 18.6401C8.03999 18.9901 6.97999 19.3701 5.86999 19.8701Z" fill="#E5DF6E"/>
<path opacity="0.77" d="M2.45999 22.76C1.69999 22.4 1.14999 21.97 0.769989 21.49C1.23999 22.08 3.27999 21.7 3.89999 21.64C5.33999 21.49 6.74999 21.16 8.11999 20.71C13.07 19.09 19.01 16.38 21.18 11.3C20.75 11.53 20.32 11.76 19.89 11.99C20.78 10.47 21.82 9.03004 23.01 7.73004C23.18 7.55004 23.33 7.22004 23.12 7.09004C23.06 7.05004 22.98 7.05004 22.91 7.02004C22.66 6.91004 22.71 6.55004 22.67 6.28004C22.44 4.78004 15.97 6.31004 15.09 6.96004C16.42 5.97004 17.97 5.29004 19.6 4.98004C20.5 4.81004 21.41 4.75004 22.3 4.55004C22.43 4.52004 22.57 4.48004 22.66 4.39004C22.83 4.20004 22.73 3.87004 22.53 3.72004C22.37 3.61004 20.92 3.19004 20.8 3.27004C21.32 2.94004 21.88 2.68004 22.46 2.50004C22.04 2.45004 21.65 2.28004 21.33 2.00004C22.07 1.96004 22.81 1.82004 23.52 1.61004C22.57 1.03004 21.5 0.650037 20.39 0.490037C19.91 0.420037 19.41 0.510037 18.95 0.450037C18.65 0.410037 18.32 0.170037 18.01 0.210037C19.29 0.0300374 20.61 -0.129963 21.86 0.210037C23.44 0.630037 24.83 1.82004 26.37 2.22004C25.88 2.91004 25.62 3.79004 25.6 4.62004C25.57 6.01004 26.54 7.57004 28.05 7.45004C22.97 14.01 17.27 20.63 9.35999 22.9C7.17999 23.52 4.58999 23.76 2.45999 22.76Z" fill="#B9BC37"/>
<path opacity="0.68" d="M2.45999 22.76C2.14999 22.61 1.88999 22.45 1.64999 22.29C7.45999 24.43 13.69 21.01 18.15 17.27C19.48 16.16 20.77 14.98 21.95 13.71C23.51 12.03 24.55 10.14 25.77 8.23004C24.29 8.15004 22.96 9.09004 21.78 9.98004C22.43 9.01004 23.56 8.49004 24.38 7.67004C24.58 7.47004 24.78 7.17004 24.66 6.91004C24.47 6.50004 23.72 6.61004 23.6 6.18004C23.86 5.96004 24.12 5.74004 24.38 5.52004C24.25 5.37004 24.07 5.27004 23.88 5.25004C24.07 4.70004 24.93 4.52004 24.95 3.94004C24.96 3.56004 24.59 3.29004 24.23 3.17004C23.87 3.05004 23.47 2.98004 23.22 2.71004C23.85 2.60004 24.49 2.59004 25.12 2.70004C24.8 2.65004 24.27 1.27004 23.84 1.04004C24.69 1.49004 25.52 1.98004 26.39 2.20004C25.9 2.89004 25.64 3.77004 25.62 4.60004C25.59 5.99004 26.56 7.55004 28.07 7.43004C22.99 13.99 17.29 20.61 9.37999 22.88C7.17999 23.52 4.58999 23.76 2.45999 22.76Z" fill="#A29720"/>
<path opacity="0.75" d="M2.45999 22.7601C2.14999 22.6101 1.88999 22.4501 1.64999 22.2901C7.45999 24.4301 13.69 21.0101 18.15 17.2701C20.63 15.1901 22.77 13.3801 24.41 10.5501C24.95 9.63006 25.48 8.71006 26.02 7.79006C26.06 7.72006 26.11 7.64006 26.12 7.55006C26.15 7.34006 25.94 7.15006 25.73 7.11006C25.52 7.07006 25.3 7.14006 25.1 7.21006C25.32 7.06006 25.55 6.90006 25.68 6.67006C25.81 6.44006 25.81 6.11006 25.6 5.94006C25.44 5.81006 25.22 5.81006 25.02 5.81006C24.33 5.82006 23.64 5.82006 22.95 5.83006C23.75 5.50006 24.55 5.17006 25.35 4.84006C25.11 4.61006 25.15 4.22006 25.15 3.89006C25.15 3.55006 25 3.13006 24.67 3.12006C24.97 3.01006 25.26 2.90006 25.56 2.79006C25.42 2.46006 25.27 2.16006 25.24 1.81006C25.34 1.85006 26.31 2.29006 26.36 2.21006C25.87 2.90006 25.61 3.78006 25.59 4.61006C25.56 6.00006 26.53 7.56006 28.04 7.44006C22.96 14.0001 17.26 20.6201 9.34999 22.8901C7.17999 23.5201 4.58999 23.7601 2.45999 22.7601Z" fill="#8A720B"/>
<path opacity="0.42" d="M27.95 3.71002C28.09 3.71002 28.23 3.71002 28.35 3.77002C28.47 3.82002 28.58 3.95002 28.57 4.08002C28.57 4.16002 28.53 4.23002 28.49 4.29002C28.16 4.84002 27.76 5.35002 27.3 5.79002C27.06 6.02002 26.73 6.24002 26.43 6.11002C26.19 6.01002 26.09 5.72002 26.05 5.46002C26 5.20002 26 4.92002 26 4.65002C26 4.11002 26 3.31002 26.5 2.94002C27.17 2.45002 27.98 2.90002 27.95 3.71002Z" fill="#FFF69E"/>
<path d="M27.35 3.26C27.46 3.24 27.62 3.25 27.64 3.36C27.66 3.44 27.58 3.52 27.59 3.6C27.6 3.72 27.78 3.78 27.79 3.9C27.8 3.96 27.75 4.02 27.71 4.07C27.42 4.42 27.11 4.75 26.78 5.07C26.62 5.23 26.38 5.38 26.2 5.25C26.12 5.19 26.08 5.08 26.06 4.97C25.89 3.98 26.41 3.42 27.35 3.26Z" fill="#FBEF95"/>
<path opacity="0.34" d="M4.27997 10.7301C5.27997 9.31007 6.54997 8.05007 8.12997 7.32007C6.27997 9.05007 4.68997 11.0501 3.37997 13.2101C3.20997 13.5001 3.03997 13.7801 2.87997 14.0701C2.73997 14.3301 2.51997 14.5401 2.38997 14.7901C1.96997 15.6201 1.63997 16.4901 1.39997 17.3901C1.34997 17.5801 1.29997 17.7701 1.18997 17.9201C1.27997 17.7901 1.21997 17.2401 1.24997 17.0601C1.29997 16.7301 1.37997 16.4001 1.47997 16.0801C1.67997 15.4901 2.04997 15.0001 2.27997 14.4401C2.80997 13.1501 3.46997 11.8901 4.27997 10.7301Z" fill="#BFB939"/>
<path opacity="0.34" d="M8.24999 4.34998C9.55999 3.21998 11.11 2.30998 12.81 1.97998C10.6 3.20998 8.56999 4.74998 6.76999 6.52998C6.52999 6.76998 6.29999 6.99998 6.06999 7.24998C5.86999 7.45998 5.59999 7.60998 5.41999 7.81998C4.80999 8.51998 4.27999 9.28998 3.81999 10.1C3.72999 10.27 3.62999 10.44 3.48999 10.56C3.60999 10.46 3.68999 9.90998 3.74999 9.73998C3.87999 9.42998 4.02999 9.12998 4.20999 8.84998C4.54999 8.32998 5.02999 7.94998 5.38999 7.44998C6.23999 6.32998 7.17999 5.26998 8.24999 4.34998Z" fill="#BFB939"/>
<path opacity="0.34" d="M3.16998 15.34C3.96998 14.32 4.97998 13.42 6.18998 12.92C4.73998 14.15 3.45998 15.58 2.39998 17.15C2.26998 17.35 2.12998 17.56 1.99998 17.77C1.87998 17.96 1.70998 18.11 1.60998 18.29C1.26998 18.89 0.989976 19.53 0.779976 20.18C0.739976 20.32 0.689976 20.45 0.599976 20.57C0.669976 20.48 0.639976 20.07 0.669976 19.94C0.719976 19.7 0.789976 19.46 0.879976 19.23C1.04998 18.8 1.34998 18.45 1.53998 18.04C1.97998 17.08 2.51998 16.17 3.16998 15.34Z" fill="#BFB939"/>
<path opacity="0.34" d="M16.91 14.35C16 15.4 14.88 16.31 13.56 16.77C15.18 15.53 16.62 14.06 17.84 12.44C18 12.23 18.16 12.01 18.31 11.79C18.44 11.59 18.64 11.44 18.76 11.26C19.16 10.63 19.49 9.95999 19.76 9.26999C19.81 9.12999 19.87 8.97999 19.97 8.85999C19.88 8.95999 19.89 9.39999 19.86 9.53999C19.8 9.79999 19.71 10.05 19.6 10.3C19.4 10.76 19.06 11.11 18.83 11.55C18.28 12.54 17.65 13.49 16.91 14.35Z" fill="#BFB939"/>
</g>
<defs>
<clipPath id="clip0_1_336">
<rect width="30.18" height="23.44" fill="white"/>
</clipPath>
</defs>
</svg>
