<svg width="48" height="48" viewBox="0 0 48 48" fill="none" xmlns="http://www.w3.org/2000/svg">
<rect x="0.5" y="0.5" width="47" height="47" rx="7.5" stroke="#EFEFEF"/>
<path d="M20.8867 33.3333C21.7151 33.3333 22.3867 32.6617 22.3867 31.8333C22.3867 31.0049 21.7151 30.3333 20.8867 30.3333C20.0582 30.3333 19.3867 31.0049 19.3867 31.8333C19.3867 32.6617 20.0582 33.3333 20.8867 33.3333Z" fill="#359740"/>
<path d="M30 33.3333C30.8284 33.3333 31.5 32.6617 31.5 31.8333C31.5 31.0049 30.8284 30.3333 30 30.3333C29.1716 30.3333 28.5 31.0049 28.5 31.8333C28.5 32.6617 29.1716 33.3333 30 33.3333Z" fill="#359740"/>
<path d="M34.0533 15.58C33.9913 15.5035 33.9131 15.4417 33.8243 15.3991C33.7356 15.3564 33.6385 15.334 33.54 15.3333H19.66L20.0933 16.6666H32.6667L30.8867 24.6666H20.8867L17.84 15.02C17.8071 14.9176 17.7498 14.8247 17.6732 14.7493C17.5966 14.6738 17.5029 14.618 17.4 14.5866L14.6667 13.7466C14.5826 13.7208 14.4943 13.7118 14.4068 13.7201C14.3193 13.7284 14.2342 13.7539 14.1565 13.795C13.9996 13.8782 13.8822 14.0202 13.83 14.19C13.7779 14.3597 13.7953 14.5432 13.8784 14.7001C13.9615 14.857 14.1036 14.9745 14.2733 15.0266L16.6667 15.76L19.7267 25.4266L18.6333 26.32L18.5467 26.4066C18.2762 26.7183 18.1229 27.1145 18.1132 27.527C18.1035 27.9396 18.2379 28.3426 18.4933 28.6666C18.6751 28.8876 18.906 29.063 19.1676 29.1788C19.4292 29.2945 19.7143 29.3474 20 29.3333H31.1267C31.3035 29.3333 31.4731 29.2631 31.5981 29.138C31.7231 29.013 31.7933 28.8434 31.7933 28.6666C31.7933 28.4898 31.7231 28.3203 31.5981 28.1952C31.4731 28.0702 31.3035 28 31.1267 28H19.8933C19.8166 27.9973 19.7418 27.975 19.6762 27.935C19.6106 27.895 19.5564 27.8388 19.5189 27.7718C19.4813 27.7048 19.4617 27.6292 19.4619 27.5524C19.4621 27.4756 19.4821 27.4001 19.52 27.3333L21.1267 26H31.42C31.5741 26.0037 31.7248 25.954 31.8463 25.8592C31.9679 25.7644 32.0528 25.6304 32.0867 25.48L34.2 16.1466C34.2203 16.0472 34.2176 15.9445 34.1922 15.8463C34.1668 15.7481 34.1193 15.657 34.0533 15.58V15.58Z" fill="#359740"/>
</svg>
