<svg width="28" height="28" viewBox="0 0 28 28" fill="none" xmlns="http://www.w3.org/2000/svg">
<path d="M23.816 25.8609C23.9232 25.6945 23.9603 25.4925 23.9192 25.2989C23.8781 25.1052 23.7621 24.9357 23.5966 24.8273C22.7856 24.3011 21.8447 23.6849 20.8331 22.9896C21.227 21.4073 21.4812 19.7934 21.5928 18.1666C21.7548 15.2923 21.2621 12.9818 20.1259 11.1682C17.9142 7.66455 13.6997 6.80376 10.3089 6.10955C8.22383 5.68416 6.25725 5.28798 5.45244 4.3866C5.35774 4.28118 5.23511 4.20479 5.09877 4.16628C4.96243 4.12776 4.81797 4.1287 4.68214 4.16899C4.54631 4.20929 4.42468 4.28727 4.33135 4.39391C4.23802 4.50056 4.17682 4.63148 4.15484 4.7715C4.06177 5.2243 2.59789 15.6167 8.09172 21.0775C10.8 23.7607 14.6994 24.7539 19.6942 24.0217C20.8191 24.836 21.8627 25.4955 22.7829 26.0805C22.9492 26.1878 23.1511 26.2249 23.3447 26.1838C23.5382 26.1426 23.7076 26.0266 23.816 25.8609V25.8609ZM9.13467 20.0175C5.25309 16.1794 5.34081 9.16349 5.50282 6.28919C6.93937 6.92241 8.45474 7.3589 10.0079 7.58686C13.2803 8.25188 16.9828 9.00872 18.8575 11.9678C20.29 14.2486 20.5009 17.5644 19.505 22.0512C15.5669 19.2161 11.1242 15.3464 9.74538 10.9135C9.67814 10.7343 9.54494 10.5877 9.37308 10.5036C9.20123 10.4195 9.00372 10.4043 8.82106 10.4613C8.63839 10.5182 8.4844 10.6428 8.39064 10.8097C8.29688 10.9765 8.27046 11.1729 8.31679 11.3586C9.73204 15.9438 13.9503 19.8008 17.8618 22.7095C14.1401 22.9577 11.2188 22.0572 9.15006 20.0108L9.13467 20.0175Z" fill="#359740"/>
</svg>
