<svg width="16" height="16" viewBox="0 0 16 16" fill="none" xmlns="http://www.w3.org/2000/svg">
<path d="M14.6666 6.73334C14.7333 6.40001 14.4666 6.00001 14.1333 6.00001L10.3333 5.46668L8.59998 2.00001C8.53331 1.86668 8.46665 1.80001 8.33331 1.73334C7.99998 1.53334 7.59998 1.66668 7.39998 2.00001L5.73331 5.46668L1.93331 6.00001C1.73331 6.00001 1.59998 6.06668 1.53331 6.20001C1.26665 6.46668 1.26665 6.86668 1.53331 7.13334L4.26665 9.80001L3.59998 13.6C3.59998 13.7333 3.59998 13.8667 3.66665 14C3.86665 14.3333 4.26665 14.4667 4.59998 14.2667L7.99998 12.4667L11.4 14.2667C11.4666 14.3333 11.6 14.3333 11.7333 14.3333C11.8 14.3333 11.8 14.3333 11.8666 14.3333C12.2 14.2667 12.4666 13.9333 12.4 13.5333L11.7333 9.73334L14.4666 7.06668C14.6 7.00001 14.6666 6.86668 14.6666 6.73334Z" fill="#FFCF55"/>
</svg>
