<svg width="16" height="16" viewBox="0 0 16 16" fill="none" xmlns="http://www.w3.org/2000/svg">
<path d="M14.6667 6.73331C14.7333 6.39998 14.4667 5.99998 14.1333 5.99998L10.3333 5.46665L8.59999 1.99998C8.53333 1.86665 8.46666 1.79998 8.33333 1.73331C8 1.53331 7.6 1.66665 7.4 1.99998L5.73333 5.46665L1.93333 5.99998C1.73333 5.99998 1.59999 6.06665 1.53333 6.19998C1.26666 6.46665 1.26666 6.86665 1.53333 7.13331L4.26666 9.79998L3.6 13.6C3.6 13.7333 3.59999 13.8666 3.66666 14C3.86666 14.3333 4.26666 14.4666 4.6 14.2666L8 12.4666L11.4 14.2666C11.4667 14.3333 11.6 14.3333 11.7333 14.3333C11.8 14.3333 11.8 14.3333 11.8667 14.3333C12.2 14.2666 12.4667 13.9333 12.4 13.5333L11.7333 9.73331L14.4667 7.06665C14.6 6.99998 14.6667 6.86665 14.6667 6.73331Z" fill="#FFCF55"/>
</svg>
