<svg width="16" height="16" viewBox="0 0 16 16" fill="none" xmlns="http://www.w3.org/2000/svg">
<path d="M14.6667 6.73331C14.7333 6.39998 14.4667 5.99998 14.1333 5.99998L10.3333 5.46665L8.6 1.99998C8.53334 1.86665 8.46667 1.79998 8.33334 1.73331C8 1.53331 7.6 1.66665 7.4 1.99998L5.73334 5.46665L1.93334 5.99998C1.73334 5.99998 1.6 6.06665 1.53334 6.19998C1.26667 6.46665 1.26667 6.86665 1.53334 7.13331L4.26667 9.79998L3.6 13.6C3.6 13.7333 3.6 13.8666 3.66667 14C3.86667 14.3333 4.26667 14.4666 4.6 14.2666L8 12.4666L11.4 14.2666C11.4667 14.3333 11.6 14.3333 11.7333 14.3333C11.8 14.3333 11.8 14.3333 11.8667 14.3333C12.2 14.2666 12.4667 13.9333 12.4 13.5333L11.7333 9.73331L14.4667 7.06665C14.6 6.99998 14.6667 6.86665 14.6667 6.73331ZM10.5333 9.06665C10.4 9.19998 10.3333 9.46665 10.3333 9.66665L10.8 12.4666L8.26667 11.1333C8.2 11.0666 8.06667 11.0666 7.93334 11.0666V3.79998L9.2 6.33331C9.26667 6.53331 9.46667 6.66665 9.73334 6.66665L12.5333 7.06665L10.5333 9.06665Z" fill="#FFCF55"/>
</svg>
