<svg width="16" height="16" viewBox="0 0 16 16" fill="none" xmlns="http://www.w3.org/2000/svg">
<path d="M14.6666 6.73331C14.7333 6.39998 14.4666 5.99998 14.1333 5.99998L10.3333 5.46665L8.59998 1.99998C8.53331 1.86665 8.46665 1.79998 8.33331 1.73331C7.99998 1.53331 7.59998 1.66665 7.39998 1.99998L5.73331 5.46665L1.93331 5.99998C1.73331 5.99998 1.59998 6.06665 1.53331 6.19998C1.26665 6.46665 1.26665 6.86665 1.53331 7.13331L4.26665 9.79998L3.59998 13.6C3.59998 13.7333 3.59998 13.8666 3.66665 14C3.86665 14.3333 4.26665 14.4666 4.59998 14.2666L7.99998 12.4666L11.4 14.2666C11.4666 14.3333 11.6 14.3333 11.7333 14.3333C11.8 14.3333 11.8 14.3333 11.8666 14.3333C12.2 14.2666 12.4666 13.9333 12.4 13.5333L11.7333 9.73331L14.4666 7.06665C14.6 6.99998 14.6666 6.86665 14.6666 6.73331Z" fill="#FFCF55"/>
</svg>
