<svg width="16" height="16" viewBox="0 0 16 16" fill="none" xmlns="http://www.w3.org/2000/svg">
<path d="M14.6667 6.73334C14.7333 6.40001 14.4667 6.00001 14.1333 6.00001L10.3333 5.46668L8.60001 2.00001C8.53334 1.86668 8.46668 1.80001 8.33334 1.73334C8.00001 1.53334 7.60001 1.66668 7.40001 2.00001L5.73334 5.46668L1.93334 6.00001C1.73334 6.00001 1.60001 6.06668 1.53334 6.20001C1.26668 6.46668 1.26668 6.86668 1.53334 7.13334L4.26668 9.80001L3.60001 13.6C3.60001 13.7333 3.60001 13.8667 3.66668 14C3.86668 14.3333 4.26668 14.4667 4.60001 14.2667L8.00001 12.4667L11.4 14.2667C11.4667 14.3333 11.6 14.3333 11.7333 14.3333C11.8 14.3333 11.8 14.3333 11.8667 14.3333C12.2 14.2667 12.4667 13.9333 12.4 13.5333L11.7333 9.73334L14.4667 7.06668C14.6 7.00001 14.6667 6.86668 14.6667 6.73334Z" fill="#FFCF55"/>
</svg>
